<?xml version="1.0" standalone="no"?>
<!DOCTYPE svg PUBLIC "-//W3C//DTD SVG 20010904//EN"
 "http://www.w3.org/TR/2001/REC-SVG-20010904/DTD/svg10.dtd">
<svg version="1.0" xmlns="http://www.w3.org/2000/svg"
 width="640.000000pt" height="640.000000pt" viewBox="0 0 640.000000 640.000000"
 preserveAspectRatio="xMidYMid meet">
<metadata>
Created by potrace 1.14, written by Peter Selinger 2001-2017
</metadata>
<g transform="translate(0.000000,640.000000) scale(0.100000,-0.100000)"
fill="#000000" stroke="none">
<path d="M2973 5519 c-352 -41 -712 -190 -998 -413 -33 -26 -104 -90 -159
-144 -302 -298 -490 -663 -568 -1102 -20 -114 -17 -510 5 -625 27 -143 30
-149 62 -155 26 -5 30 -13 60 -105 47 -150 45 -148 113 -139 31 4 66 10 77 15
20 8 20 8 0 8 -17 1 -27 18 -53 94 -17 50 -33 99 -34 107 -2 8 -12 17 -22 20
-10 3 128 41 308 83 181 43 330 76 332 74 3 -3 -6 -7 -20 -11 -23 -6 -24 -8
-11 -33 7 -16 23 -68 36 -117 18 -74 20 -90 8 -97 -25 -16 4 -10 251 55 135
36 246 63 248 62 1 -2 -2 -15 -8 -30 -9 -23 -6 -33 19 -69 28 -40 98 -111 151
-152 l25 -20 -23 27 c-16 18 -20 28 -12 33 8 5 6 13 -7 28 -10 11 7 1 37 -22
68 -54 164 -102 260 -132 96 -30 261 -32 360 -6 214 57 379 193 477 392 19 39
32 57 28 40 -4 -16 -7 -39 -7 -49 1 -10 -8 -36 -19 -57 -11 -22 -17 -39 -14
-39 11 0 85 166 100 225 16 65 21 240 6 250 -6 3 -12 -12 -14 -32 -3 -25 -4
-20 -3 15 l1 53 260 108 c143 60 316 134 385 166 168 77 190 86 190 80 0 -2
-17 -13 -37 -24 -21 -11 -32 -20 -24 -21 11 0 9 -4 -5 -15 -37 -28 -2 -14 170
69 96 46 172 78 170 72 -3 -7 2 -55 11 -107 8 -52 18 -155 21 -229 18 -385
-84 -770 -294 -1104 -34 -54 -62 -101 -62 -106 0 -15 -77 -110 -176 -216 -83
-89 -312 -272 -399 -320 -27 -15 -79 -43 -114 -62 -35 -19 -76 -48 -90 -63
-43 -46 -252 -118 -446 -153 -44 -8 -66 -15 -49 -15 53 -2 230 38 357 80 394
129 754 398 978 731 23 35 45 65 48 68 3 3 20 31 36 62 17 32 34 58 39 58 5 0
7 3 3 6 -7 8 31 86 47 96 6 4 8 8 3 8 -4 0 0 15 10 33 9 17 16 35 15 40 -1 4
3 7 8 7 5 0 9 3 9 8 -1 4 -1 9 1 12 1 3 4 16 6 30 2 13 10 28 17 32 6 4 8 8 3
8 -5 0 -3 7 4 15 7 8 9 15 4 15 -4 0 -3 5 3 11 6 6 9 18 6 25 -3 8 0 14 7 14
6 0 8 5 5 10 -4 6 -1 17 5 25 7 8 9 15 5 15 -4 0 -2 7 5 15 6 8 9 19 6 24 -4
5 -2 13 4 16 6 4 8 15 5 25 -3 10 -1 21 4 24 6 4 8 13 5 21 -3 8 -2 20 2 27 9
14 13 36 17 83 1 17 5 35 9 40 3 6 5 26 3 45 -1 19 0 39 3 44 8 14 6 308 -3
329 -4 10 -5 31 -2 47 4 16 2 32 -4 36 -6 3 -8 19 -5 35 3 15 1 31 -5 35 -6 3
-8 17 -5 29 3 13 1 27 -5 30 -6 4 -8 14 -5 22 4 9 1 22 -5 29 -6 7 -7 19 -3
25 5 9 2 10 -11 5 -15 -5 -16 -4 -6 8 16 20 7 33 -27 41 -24 6 -30 17 -62 115
-35 109 -36 110 -16 129 19 20 19 20 -9 83 -85 192 -239 412 -400 573 -370
370 -878 578 -1398 574 -78 -1 -174 -5 -214 -10z m507 -63 c40 -8 54 -14 36
-15 -32 -1 -55 -25 -56 -58 0 -12 -9 -31 -21 -42 -12 -11 -18 -25 -14 -31 5
-8 -6 -10 -41 -6 -35 5 -23 -1 41 -18 257 -69 484 -187 701 -362 50 -40 102
-91 116 -111 31 -48 53 -102 44 -110 -3 -3 -6 0 -6 8 0 32 -14 39 -53 27 -20
-6 -37 -15 -37 -20 0 -4 -9 -8 -19 -8 -11 0 -23 -4 -26 -10 -3 -5 -20 -10 -36
-10 -17 0 -28 -4 -25 -9 4 -5 -24 -19 -61 -31 -82 -27 -231 -78 -258 -90 -11
-5 -29 -11 -40 -14 -64 -17 -174 -63 -168 -71 4 -4 0 -5 -9 -2 -10 3 -64 -9
-120 -27 -57 -18 -125 -40 -153 -48 -27 -8 -49 -19 -48 -24 1 -5 -12 -9 -28
-10 -25 -1 -27 1 -18 15 17 24 -52 -49 -78 -82 -16 -20 -39 -33 -80 -44 -81
-21 -194 -75 -269 -128 -64 -46 -174 -167 -235 -261 -19 -28 -39 -49 -45 -47
-5 2 -47 -19 -93 -47 -45 -27 -89 -50 -96 -50 -8 0 -18 -7 -22 -14 -5 -8 -35
-29 -68 -47 -33 -17 -67 -37 -75 -44 -8 -6 -45 -26 -82 -44 -36 -17 -72 -38
-78 -46 -7 -8 -20 -15 -28 -15 -24 0 -195 85 -233 117 -31 25 -32 25 -12 2 24
-27 20 -43 -15 -53 -12 -4 -34 -23 -48 -42 -15 -19 -32 -33 -38 -31 -6 2 -24
-11 -40 -29 -16 -18 -33 -31 -37 -29 -4 3 -17 -7 -29 -22 -17 -22 -23 -24 -30
-13 -5 8 -11 12 -13 10 -1 -3 -25 -32 -52 -65 -27 -33 -51 -62 -52 -64 -1 -2
-9 2 -18 9 -13 11 -15 6 -16 -36 -3 -96 -27 158 -28 293 -4 499 188 976 538
1336 307 317 686 508 1131 573 117 17 444 11 540 -10z m-297 -1173 c-7 -2 -21
-2 -30 0 -10 3 -4 5 12 5 17 0 24 -2 18 -5z m155 -258 c135 -32 256 -114 328
-222 54 -81 104 -228 111 -328 17 -258 -153 -493 -407 -560 -70 -19 -200 -19
-270 0 -177 47 -310 168 -377 342 -35 91 -49 288 -26 377 23 94 69 174 142
247 133 133 319 186 499 144z m-2031 -847 c-3 -7 -5 -2 -5 12 0 14 2 19 5 13
2 -7 2 -19 0 -25z m17 -44 c3 -8 2 -12 -4 -9 -6 3 -10 10 -10 16 0 14 7 11 14
-7z"/>
<path d="M3298 5313 c7 -3 16 -2 19 1 4 3 -2 6 -13 5 -11 0 -14 -3 -6 -6z"/>
<path d="M2724 3665 c-14 -30 -27 -71 -30 -92 -4 -31 -2 -29 11 14 8 29 24 71
35 93 11 22 18 40 15 40 -4 0 -17 -25 -31 -55z"/>
<path d="M3542 3415 c0 -16 2 -22 5 -12 2 9 2 23 0 30 -3 6 -5 -1 -5 -18z"/>
<path d="M3531 3364 c0 -11 3 -14 6 -6 3 7 2 16 -1 19 -3 4 -6 -2 -5 -13z"/>
<path d="M2970 3266 c0 -2 8 -10 18 -17 15 -13 16 -12 3 4 -13 16 -21 21 -21
13z"/>
<path d="M3383 1603 c9 -2 25 -2 35 0 9 3 1 5 -18 5 -19 0 -27 -2 -17 -5z"/>
</g>
</svg>
